<svg id="artist" xmlns="http://www.w3.org/2000/svg" width="31.033" height="31.264" viewBox="0 0 31.033 31.264">
  <path id="Path_3" data-name="Path 3" d="M174.767,61.356a2.467,2.467,0,1,0-2.467-2.467A2.47,2.47,0,0,0,174.767,61.356Zm0-4.018a1.551,1.551,0,1,1-1.551,1.551A1.553,1.553,0,0,1,174.767,57.338Z" transform="translate(-161.895 -52.977)" fill="rgba(233,124,53,0.24)"/>
  <path id="Path_4" data-name="Path 4" d="M154.424,350.174a2.823,2.823,0,1,0-2.823-2.823A2.827,2.827,0,0,0,154.424,350.174Zm0-4.731a1.908,1.908,0,1,1-1.908,1.908A1.91,1.91,0,0,1,154.424,345.443Z" transform="translate(-142.459 -323.49)" fill="rgba(233,124,53,0.24)"/>
  <path id="Path_5" data-name="Path 5" d="M85.589,131.633a2.993,2.993,0,1,0,2.993,2.993A3,3,0,0,0,85.589,131.633Zm0,5.071a2.077,2.077,0,1,1,2.077-2.077A2.08,2.08,0,0,1,85.589,136.7Z" transform="translate(-77.668 -123.595)" fill="rgba(233,124,53,0.24)"/>
  <path id="Path_6" data-name="Path 6" d="M71.549,256.668a2.993,2.993,0,1,0-2.993-2.993A3,3,0,0,0,71.549,256.668Zm0-5.071a2.077,2.077,0,1,1-2.077,2.077A2.08,2.08,0,0,1,71.549,251.6Z" transform="translate(-64.485 -235.374)" fill="rgba(233,124,53,0.24)"/>
  <path id="Path_7" data-name="Path 7" d="M11.939,29.949a.458.458,0,1,0,.165-.9A8.084,8.084,0,0,1,7.562,26.53C4.022,22.665,2.445,18.5,2.877,14.139,3.851,4.307,14.219-.587,23.781,1.325A2.231,2.231,0,0,1,25.615,3.46a2.2,2.2,0,0,1-1.606,2.265A8.818,8.818,0,0,0,20.227,7.81a5.931,5.931,0,0,0-.272,7.915,8.06,8.06,0,0,1,1.8,4.081c-1.037,2.357-2.1,5.027-2.918,7.5a8.29,8.29,0,0,1-4.713,1.862.458.458,0,0,0,.029.915h.03a9.245,9.245,0,0,0,4.193-1.328A1.974,1.974,0,0,0,22,30.263c.882-1.56,1.837-3.454,2.763-5.477a.458.458,0,1,0-.833-.381c-.915,2-1.858,3.869-2.728,5.407a1.061,1.061,0,0,1-1.38.434,1.051,1.051,0,0,1-.555-1.258,88.585,88.585,0,0,1,4.96-12.317l2.462,1.054c-.574,1.564-1.228,3.193-1.895,4.737a.458.458,0,0,0,.841.363A75.55,75.55,0,0,0,29.111,13.2a1.039,1.039,0,0,0,.613-.575l.4-.926a1.046,1.046,0,0,0,.067-.606,6.163,6.163,0,0,0,2.382-2.646c.683-1.6.229-4.3-.1-5.768A.9.9,0,0,0,31.122,2.1c-1.292.775-3.561,2.312-4.244,3.908a6.163,6.163,0,0,0-.271,3.549,1.044,1.044,0,0,0-.393.468l-.4.926a1.039,1.039,0,0,0,.007.84,66.594,66.594,0,0,0-3.433,6.6,8.948,8.948,0,0,0-1.735-3.26,4.852,4.852,0,0,1-1.158-3.2c0-2.6,1.605-4.393,4.771-5.339A3.089,3.089,0,0,0,26.53,3.417,3.16,3.16,0,0,0,23.961.427C13.881-1.589,3,3.65,1.965,14.049c-.458,4.627,1.2,9.034,4.921,13.1a8.993,8.993,0,0,0,5.052,2.8ZM26.528,12.4l1.659.71c-.3,1.1-.7,2.381-1.188,3.748L24.636,15.85c.656-1.294,1.3-2.471,1.892-3.447Zm2.75-1.063-.4.926a.136.136,0,0,1-.179.072l-1.971-.844a.136.136,0,0,1-.072-.179l.4-.926a.136.136,0,0,1,.179-.071l1.971.844a.137.137,0,0,1,.072.179ZM27.72,6.372c.2-.468.978-1.744,3.857-3.473.736,3.277.35,4.719.15,5.188a5.286,5.286,0,0,1-2.085,2.268c-.024-.013-.05-.025-.075-.036L27.6,9.476h0q-.038-.016-.078-.03a5.288,5.288,0,0,1,.2-3.074Z" transform="translate(-1.891 -0.001)" fill="rgba(233,124,53,0.24)"/>
</svg>
