<svg id="behance" xmlns="http://www.w3.org/2000/svg" width="28.959" height="18.101" viewBox="0 0 28.959 18.101">
  <g id="Group_32" data-name="Group 32">
    <g id="Group_31" data-name="Group 31">
      <path id="Path_57" data-name="Path 57" d="M11.914,104.16a4.344,4.344,0,0,0,1.367-1,3.9,3.9,0,0,0,.827-2.6,4.451,4.451,0,0,0-.82-2.7q-1.368-1.835-4.639-1.882H0v17.653H8.064a12.609,12.609,0,0,0,2.529-.237,4.973,4.973,0,0,0,2.022-.887,4.9,4.9,0,0,0,1.267-1.388,5.1,5.1,0,0,0,.8-2.815,4.631,4.631,0,0,0-.7-2.587A4.022,4.022,0,0,0,11.914,104.16ZM3.568,99.045h3.9a6.867,6.867,0,0,1,2.116.275,1.584,1.584,0,0,1,.961,1.633,1.662,1.662,0,0,1-.728,1.549,3.651,3.651,0,0,1-1.893.438H3.568Zm6.16,11.213a4.266,4.266,0,0,1-1.814.311H3.568v-4.708H7.973a4.6,4.6,0,0,1,1.792.3,1.893,1.893,0,0,1,1.139,1.9A2.219,2.219,0,0,1,9.727,110.259Z" transform="translate(0 -95.979)" fill="#001414"/>
      <rect id="Rectangle_2" data-name="Rectangle 2" width="7.669" height="2.197" transform="translate(18.506 0.824)" fill="#001414"/>
      <path id="Path_58" data-name="Path 58" d="M292.881,176.421a6.3,6.3,0,0,0-1.057-2.7,5.329,5.329,0,0,0-2.284-1.931,7.562,7.562,0,0,0-3.113-.612,6.443,6.443,0,0,0-4.731,1.81,7.022,7.022,0,0,0-1.823,5.206q0,3.619,2.022,5.226a7.263,7.263,0,0,0,4.661,1.606,6.487,6.487,0,0,0,4.979-1.9,4.283,4.283,0,0,0,1.282-2.36h-3.533a2.849,2.849,0,0,1-.713.9,2.958,2.958,0,0,1-1.919.6,3.547,3.547,0,0,1-1.91-.492,3.118,3.118,0,0,1-1.387-2.753H293A16.612,16.612,0,0,0,292.881,176.421Zm-9.439.338a3.538,3.538,0,0,1,.923-2.02,2.782,2.782,0,0,1,2.065-.748,3.072,3.072,0,0,1,2.054.7,2.855,2.855,0,0,1,.921,2.065Z" transform="translate(-264.041 -166.925)" fill="#001414"/>
    </g>
  </g>
</svg>
