<svg id="color-palette" xmlns="http://www.w3.org/2000/svg" width="25.82" height="32.188" viewBox="0 0 25.82 32.188">
  <path id="Path_8" data-name="Path 8" d="M75.63,13.028,73.89,11.1a2.758,2.758,0,0,0-.807-3.672L70.574,5.7a2.764,2.764,0,0,0-1.737-2.669L63.287.815a2.738,2.738,0,0,0-2.064.009A2.751,2.751,0,0,0,59.258,0H53.283a2.763,2.763,0,0,0-2.76,2.76V26.44a5.744,5.744,0,0,0,9.52,4.333.479.479,0,0,0,.042-.033l10.76-9.684a.473.473,0,0,0-.632-.7l-.443.4-1.44-1.593,2.261-3.27,2.056,2.274L71.711,19a.473.473,0,0,0,.632.7l3.09-2.781a2.76,2.76,0,0,0,.2-3.9ZM73.3,9.377a1.8,1.8,0,0,1-.293,1.358L71.723,12.59,68.8,10.57l1.547-3.88,2.2,1.52A1.8,1.8,0,0,1,73.3,9.377Zm-4.493,7.43-1.954-1.351,1.589-3.985,2.743,1.9ZM65.89,21.024l-.986-.682,1.589-3.985,1.775,1.228Zm.728-7.531-1.37-.546a.473.473,0,0,0-.35.878l1.37.546-1.624,4.072L62.018,17.4v-4.72l1,.4a.473.473,0,0,0,.35-.878l-1.351-.538V6.94l6.223,2.481Zm-5.545-2.95H55.719a.473.473,0,0,0,0,.945h5.354v4.384h-9.6V11.489H53.7a.473.473,0,0,0,0-.945H51.468V6.159h9.6v4.384Zm-9.6,6.275h9.6V21.2h-9.6Zm10.55,1.6,2.276.907-2.276,5.708Zm2.945,5.612.524.58-2.45,2.2Zm-2.043,1.292,1.624-4.074.807.558Zm.016-23.625,5.55,2.213a1.817,1.817,0,0,1,1.127,1.926l0,.011a1.824,1.824,0,0,1-.112.421l-.909,2.28L62.018,5.922V2.76a2.743,2.743,0,0,0-.242-1.129,1.8,1.8,0,0,1,1.161.061ZM53.283.945h5.975A1.817,1.817,0,0,1,61.073,2.76V5.214h-9.6V2.76A1.817,1.817,0,0,1,53.283.945Zm-1.814,25.5V22.147h9.6V26.44a4.8,4.8,0,0,1-9.6,0Zm17.6-5.056L66.19,23.973l-.675-.746,2.261-3.27ZM75.4,14.97a1.8,1.8,0,0,1-.594,1.254l-1.451,1.306-2.206-2.44,2.2-3.182,1.585,1.753A1.8,1.8,0,0,1,75.4,14.97Z" transform="translate(-50.523 0)" fill="rgba(233,124,53,0.24)"/>
  <path id="Path_9" data-name="Path 9" d="M106.324,383.857a2.267,2.267,0,1,0,2.267,2.267A2.269,2.269,0,0,0,106.324,383.857Zm0,3.588a1.321,1.321,0,1,1,1.321-1.321A1.323,1.323,0,0,1,106.324,387.445Z" transform="translate(-100.683 -359.666)" fill="rgba(233,124,53,0.24)"/>
</svg>
