<svg id="computer" xmlns="http://www.w3.org/2000/svg" width="35.528" height="29.225" viewBox="0 0 35.528 29.225">
  <path id="Path_10" data-name="Path 10" d="M41.236,56H10.292A2.3,2.3,0,0,0,8,58.292V77.775a2.3,2.3,0,0,0,2.292,2.292H22.1l-.764,2.292H19.461a.573.573,0,0,0-.573.573v1.146H13.73a.573.573,0,1,0,0,1.146H38.944a.573.573,0,0,0,0-1.146h-6.3V82.932a.573.573,0,0,0-.573-.573H30.188l-.764-2.292H41.236a2.3,2.3,0,0,0,2.292-2.292V58.292A2.3,2.3,0,0,0,41.236,56ZM31.494,83.505v.573H20.034v-.573Zm-8.946-1.146.764-2.292h4.9l.764,2.292Zm19.834-4.584a1.148,1.148,0,0,1-1.146,1.146H10.292a1.148,1.148,0,0,1-1.146-1.146V76.629H42.382ZM17.717,70.326,17.5,75.483h-.668l-.215-5.157ZM16.7,69.18l.382-2.292h.175l.382,2.292Zm.47-3.438c-.621,0-1.146-.787-1.146-1.719a3.97,3.97,0,0,1,1.145-2.045,3.978,3.978,0,0,1,1.147,2.045C18.315,64.954,17.79,65.742,17.168,65.742ZM23.4,64.6l.067.135v.438H21.18v-.438l.067-.135ZM21.82,63.449l.506-1.011.506,1.011Zm1.652,2.865v9.1a.591.591,0,0,0,.005.072h-2.3a.592.592,0,0,0,.005-.072v-9.1Zm5.157-2.292h1.719v1.146h-.573a.573.573,0,0,0,0,1.146h.573v1.146H28.629a.573.573,0,1,0,0,1.146h1.719v1.146h-.573a.573.573,0,0,0,0,1.146h.573v1.146H28.629a.573.573,0,0,0,0,1.146h1.719v2.292H26.337V61.73h4.011v1.146H28.629a.573.573,0,0,0,0,1.146ZM35.505,70.9v4.513a.591.591,0,0,0,.005.072h-2.3a.593.593,0,0,0,.005-.072V70.9Zm-2.292-1.146v-.438l1.146-2.292,1.146,2.292v.438Zm9.168,5.73H36.647a.592.592,0,0,0,.005-.072V69.18a.579.579,0,0,0-.06-.256l-1.719-3.438a.574.574,0,0,0-1.026,0l-1.719,3.438a.579.579,0,0,0-.06.256v6.232a.592.592,0,0,0,.005.072h-.578V61.157a.573.573,0,0,0-.573-.573H25.764a.573.573,0,0,0-.573.573V75.483h-.578a.592.592,0,0,0,.005-.072V64.6a.579.579,0,0,0-.06-.256L22.839,60.9a.574.574,0,0,0-1.026,0l-1.719,3.438a.579.579,0,0,0-.06.256V75.411a.591.591,0,0,0,.005.072h-1.39l.238-5.707c0-.013,0-.026,0-.039V69.72a.575.575,0,0,0-.007-.06h0l-.53-3.181a3.068,3.068,0,0,0,1.111-2.455c0-1.473-1.707-3.1-1.9-3.285a.574.574,0,0,0-.781,0c-.195.181-1.9,1.812-1.9,3.285a3.068,3.068,0,0,0,1.111,2.455l-.53,3.181h0a.575.575,0,0,0-.007.06v.017c0,.014,0,.027,0,.039l.238,5.707H9.146V58.292a1.148,1.148,0,0,1,1.146-1.146H41.236a1.148,1.148,0,0,1,1.146,1.146Z" transform="translate(-8 -56)" fill="rgba(233,124,53,0.24)"/>
  <path id="Path_11" data-name="Path 11" d="M44.011,352H40.573a.573.573,0,0,0,0,1.146h3.438a.573.573,0,1,0,0-1.146Z" transform="translate(-37.708 -330.798)" fill="rgba(233,124,53,0.24)"/>
  <path id="Path_12" data-name="Path 12" d="M113.146,352h-.573a.573.573,0,0,0,0,1.146h.573a.573.573,0,0,0,0-1.146Z" transform="translate(-104.551 -330.798)" fill="rgba(233,124,53,0.24)"/>
  <path id="Path_13" data-name="Path 13" d="M200.573,208a.573.573,0,0,0-.573.573v6.3a.573.573,0,1,0,1.146,0v-6.3A.573.573,0,0,0,200.573,208Z" transform="translate(-186.247 -197.112)" fill="rgba(233,124,53,0.24)"/>
  <path id="Path_14" data-name="Path 14" d="M368.573,272a.573.573,0,0,0-.573.573v1.719a.573.573,0,1,0,1.146,0v-1.719A.573.573,0,0,0,368.573,272Z" transform="translate(-342.214 -256.528)" fill="rgba(233,124,53,0.24)"/>
  <path id="Path_15" data-name="Path 15" d="M40.573,89.146h4.584a.573.573,0,1,0,0-1.146H40.573a.573.573,0,1,0,0,1.146Z" transform="translate(-37.708 -85.708)" fill="rgba(233,124,53,0.24)"/>
  <path id="Path_16" data-name="Path 16" d="M40.573,113.146h1.146a.573.573,0,1,0,0-1.146H40.573a.573.573,0,0,0,0,1.146Z" transform="translate(-37.708 -107.989)" fill="rgba(233,124,53,0.24)"/>
  <path id="Path_17" data-name="Path 17" d="M424.573,297.146h2.292a.573.573,0,1,0,0-1.146h-2.292a.573.573,0,0,0,0,1.146Z" transform="translate(-394.202 -278.809)" fill="rgba(233,124,53,0.24)"/>
  <path id="Path_18" data-name="Path 18" d="M448.573,273.146h.573a.573.573,0,0,0,0-1.146h-.573a.573.573,0,0,0,0,1.146Z" transform="translate(-416.483 -256.528)" fill="rgba(233,124,53,0.24)"/>
</svg>
