<svg id="design-process" xmlns="http://www.w3.org/2000/svg" width="32.621" height="31.812" viewBox="0 0 32.621 31.812">
  <path id="Path_19" data-name="Path 19" d="M6.034,6.35a7.009,7.009,0,0,1,4.219,1.336,4.257,4.257,0,0,1,1.815,3.368,4.056,4.056,0,0,1-1.206,2.826,6.184,6.184,0,0,1-2.873,1.625L6.417,17.62a.478.478,0,0,1-.771-.007L4.08,15.507a6.185,6.185,0,0,1-2.873-1.625A4.057,4.057,0,0,1,0,11.055,4.255,4.255,0,0,1,1.817,7.686,7,7,0,0,1,6.034,6.35ZM29.819,12H27.961v7.672h1.858Zm-2.337-.955H30.3a.478.478,0,0,1,.479.477v8.627a.478.478,0,0,1-.479.479H27.483a.477.477,0,0,1-.477-.479V11.521A.476.476,0,0,1,27.483,11.044Zm-7.621,4.407V13.545H18v1.084A8.093,8.093,0,0,1,19.861,15.451Zm-2.814-1.044v-1.34a.478.478,0,0,1,.479-.477H20.34a.476.476,0,0,1,.477.477v3.058q.314.257.6.544a8.081,8.081,0,0,1,.609.681V9.666a.478.478,0,0,1,.477-.479h2.816a.478.478,0,0,1,.477.479V20.148a.477.477,0,0,1-.477.479H23.6a8.109,8.109,0,0,1,.153.948h7.912V7.305H24.994a.478.478,0,1,1,0-.955h7.15a.478.478,0,0,1,.477.479V22.052a.478.478,0,0,1-.477.479H23.795a8.339,8.339,0,0,1-.078.991,7.925,7.925,0,0,1-.228,1.093.477.477,0,1,1-.918-.258,7.2,7.2,0,0,0,.2-.961,7.3,7.3,0,0,0,.067-.988A7.16,7.16,0,0,0,9.186,19.386a.478.478,0,0,1-.867-.4,8.148,8.148,0,0,1,3.005-3.422A8.064,8.064,0,0,1,15.2,14.306V6.829a.478.478,0,0,1,.477-.479h7.15a.478.478,0,1,1,0,.955H16.157v7a7.592,7.592,0,0,1,.89.1Zm6.274,5.265H24.84V10.144H22.982v8.718A7.959,7.959,0,0,1,23.321,19.671Zm4.4,7.481a.478.478,0,0,1-.675-.675l1.5-1.5a.475.475,0,0,1,.679,0l1.5,1.5a.478.478,0,1,1-.675.675l-.685-.684v4.259a2.96,2.96,0,0,1-2.953,2.951H21.6a.478.478,0,1,1,0-.955h4.815a2,2,0,0,0,2-2V26.467ZM7.873,32a.478.478,0,0,1,.675-.675l1.5,1.5a.48.48,0,0,1,0,.681l-1.5,1.5a.478.478,0,0,1-.675-.675l.684-.684H4.894a2.96,2.96,0,0,1-2.951-2.953V16.933a.478.478,0,1,1,.955,0v13.76a2,2,0,0,0,2,2H8.557ZM3.944,11.533a.478.478,0,1,1,0-.955H8.124a.478.478,0,1,1,0,.955Zm0,1.772a.478.478,0,1,1,0-.955H7.062a.478.478,0,0,1,0,.955Zm0-3.544a.478.478,0,1,1,0-.955H8.124a.478.478,0,1,1,0,.955ZM16.157,29.29v2.07h2.229V29.352a.477.477,0,0,1,.28-.433A7.146,7.146,0,0,0,20.4,27.788a7.251,7.251,0,0,0,1.347-1.582.476.476,0,1,1,.806.507,8.113,8.113,0,0,1-3.217,2.935V34.5a3.663,3.663,0,1,1-7.325,0V29.648a8.107,8.107,0,0,1-4.452-7.24c0-.2.007-.408.024-.616s.038-.412.069-.61a.477.477,0,0,1,.945.141c-.027.181-.049.361-.061.54s-.02.358-.02.545a7.128,7.128,0,0,0,1.127,3.86A7.2,7.2,0,0,0,12.657,28.9a.475.475,0,0,1,.314.45V31.36H15.2V29.29l-3.533-6.91-.141.081a.475.475,0,0,1-.48-.82l1.463-.856a.476.476,0,0,1,.489,0l1.215.712,1.223-.715a.476.476,0,0,1,.489,0l1.215.712,1.223-.715a.472.472,0,0,1,.488,0l1.457.852a.476.476,0,1,1-.482.82l-.139-.081Zm-3.406-7.544-.258.152,3.186,6.236L18.866,21.9l-.26-.152-1.215.712a.476.476,0,0,1-.489,0l-1.223-.715-1.216.712a.473.473,0,0,1-.488,0Zm4.842,14.665a2.7,2.7,0,0,0,.751-1.436h-5.33a2.705,2.705,0,0,0,4.578,1.436Zm-4.622-4.094v1.7h5.414v-1.7ZM9.673,8.445a6.03,6.03,0,0,0-3.639-1.14,6.03,6.03,0,0,0-3.639,1.14,3.327,3.327,0,0,0-1.439,2.61,3.119,3.119,0,0,0,.937,2.165,5.269,5.269,0,0,0,2.559,1.4.475.475,0,0,1,.293.184l1.29,1.734L7.325,14.8a.473.473,0,0,1,.271-.179,5.289,5.289,0,0,0,2.579-1.405,3.119,3.119,0,0,0,.937-2.165A3.327,3.327,0,0,0,9.673,8.445Z" transform="translate(0 -6.35)" fill="rgba(233,124,53,0.24)"/>
</svg>
