<svg id="dividing_icon" data-name="dividing icon" xmlns="http://www.w3.org/2000/svg" xmlns:xlink="http://www.w3.org/1999/xlink" width="13.044" height="126.729" viewBox="0 0 13.044 126.729">
  <defs>
    <linearGradient id="linear-gradient" y1="0.504" x2="1" y2="0.504" gradientUnits="objectBoundingBox">
      <stop offset="0" stop-color="#e97c35"/>
      <stop offset="0" stop-color="#ff0057" stop-opacity="0.486"/>
      <stop offset="0.021" stop-color="#f20a59" stop-opacity="0.486"/>
      <stop offset="0.071" stop-color="#ff0057" stop-opacity="0.486"/>
      <stop offset="0.293" stop-color="#c86b8b" stop-opacity="0.486"/>
      <stop offset="0.554" stop-color="#ec3372" stop-opacity="0.486"/>
      <stop offset="0.796" stop-color="#9a0538" stop-opacity="0.486"/>
      <stop offset="0.962" stop-color="#ff0057" stop-opacity="0.486"/>
      <stop offset="1" stop-color="#ff0057" stop-opacity="0.486"/>
    </linearGradient>
  </defs>
  <line id="Line_1" data-name="Line 1" y2="101" transform="translate(7.136 25.729)" fill="none" stroke="rgba(255,0,87,0.49)" stroke-width="0.5"/>
  <path id="cancel" d="M7.242,6.113l5.652-5.3a.457.457,0,0,0,0-.675.534.534,0,0,0-.721,0l-5.652,5.3L.87.141a.534.534,0,0,0-.721,0,.457.457,0,0,0,0,.675L5.8,6.113l-5.652,5.3a.457.457,0,0,0,0,.675.526.526,0,0,0,.36.14.526.526,0,0,0,.36-.14l5.652-5.3,5.652,5.3a.534.534,0,0,0,.721,0,.457.457,0,0,0,0-.675Z" transform="translate(0 -0.001)" fill="url(#linear-gradient)"/>
</svg>
