<svg id="dribble" xmlns="http://www.w3.org/2000/svg" width="22.989" height="25.23" viewBox="0 0 22.989 25.23">
  <path id="Path_51" data-name="Path 51" d="M13.709,39.442a31.994,31.994,0,0,0,3.492-.91A29.723,29.723,0,0,0,11.728,31.3a12.568,12.568,0,0,0-6.357,8.362A21.579,21.579,0,0,0,13.709,39.442Z" transform="translate(-5.124 -29.769)" fill="#001414"/>
  <path id="Path_52" data-name="Path 52" d="M176.9,2.939l-.205.807c-.323,1.291-3.051,3.14-6.631,4.475l-.161.059A31.223,31.223,0,0,0,164.472.885,12.2,12.2,0,0,1,168.932,0a12.494,12.494,0,0,1,7.5,2.558A3.818,3.818,0,0,1,176.9,2.939Z" transform="translate(-157.732)" fill="#001414"/>
  <path id="Path_53" data-name="Path 53" d="M14.356,209.236q-.572-1.562-1.276-3.037a31.845,31.845,0,0,1-3.873,1.027,27.525,27.525,0,0,1-5.34.557,19.192,19.192,0,0,1-3.526-.308c-.029.381,0,.763,0,1.159a12.473,12.473,0,0,0,4.5,9.595l.044-.264C5.451,214.591,9.353,211.026,14.356,209.236Z" transform="translate(-0.328 -195.923)" fill="#001414"/>
  <path id="Path_54" data-name="Path 54" d="M131.041,296.5a35.189,35.189,0,0,1,1.614,10,12.269,12.269,0,0,1-10.093-1.311,3.069,3.069,0,0,1-.015-1.1C123,301.311,126.64,298.1,131.041,296.5Z" transform="translate(-117.341 -281.807)" fill="#001414"/>
  <path id="Path_55" data-name="Path 55" d="M334.254,275.68a12.535,12.535,0,0,1-7.311,9.609,36.512,36.512,0,0,0-1.672-9.844A14,14,0,0,1,334.254,275.68Z" transform="translate(-311.397 -261.194)" fill="#001414"/>
  <path id="Path_56" data-name="Path 56" d="M300.147,92.222v.264a15.421,15.421,0,0,0-9.585-.1c-.381-1.056-.822-2.083-1.291-3.081,2.411-.905,6.912-2.989,7.541-5.5A12.447,12.447,0,0,1,300.147,92.222Z" transform="translate(-277.157 -79.655)" fill="#001414"/>
</svg>
