<svg id="idea" xmlns="http://www.w3.org/2000/svg" width="31.205" height="32.188" viewBox="0 0 31.205 32.188">
  <g id="Group_6" data-name="Group 6" transform="translate(24.983 12.109)">
    <g id="Group_5" data-name="Group 5">
      <path id="Path_32" data-name="Path 32" d="M406.288,192.8a.629.629,0,1,0-.889.889l.03.029a.629.629,0,0,0,.86-.918Z" transform="translate(-405.214 -192.615)" fill="rgba(233,124,53,0.24)"/>
    </g>
  </g>
  <g id="Group_8" data-name="Group 8" transform="translate(16.845 9.633)">
    <g id="Group_7" data-name="Group 7">
      <path id="Path_33" data-name="Path 33" d="M283.7,154.857a9.846,9.846,0,0,0-1.1-.648,8.431,8.431,0,0,0-6.394-.609.629.629,0,1,0,.373,1.2,7.2,7.2,0,0,1,5.455.532,8.758,8.758,0,0,1,.957.565.629.629,0,1,0,.706-1.04Z" transform="translate(-275.764 -153.23)" fill="rgba(233,124,53,0.24)"/>
    </g>
  </g>
  <g id="Group_10" data-name="Group 10" transform="translate(4.014 3.989)">
    <g id="Group_9" data-name="Group 9">
      <path id="Path_34" data-name="Path 34" d="M98.152,78.865a8.088,8.088,0,0,1-.692-1.732,5.945,5.945,0,0,0-.758-5.652,11.778,11.778,0,0,0-9.177-4.869,11.25,11.25,0,0,0-5.183,1.259,5.382,5.382,0,1,0-8.1,5.56,1.051,1.051,0,0,1,.607.934v3.679a1.274,1.274,0,0,0,1.273,1.273h.214a11.2,11.2,0,0,0,3.791,7.089,2.479,2.479,0,0,1-.172,1.222c-.195.677-.493,1.428-.757,2.092-.176.444-.329.827-.421,1.117a.629.629,0,0,0,.6.819h8.974a1.02,1.02,0,0,0,.955-.761,6.145,6.145,0,0,0,.26-.952c.075-.34.25-1.135.424-1.232a.127.127,0,0,1,.035,0,.618.618,0,0,0,.1.008c.94,0,1.708.043,2.385.08,1.987.11,3.187.177,4.239-1.339a5.064,5.064,0,0,0,.41-3.085A11.228,11.228,0,0,1,97.15,82.6a5.487,5.487,0,0,1,.557-.415c.593-.407,1.152-.791,1.152-1.376A5.513,5.513,0,0,0,98.152,78.865ZM74.9,72.36a4.125,4.125,0,1,1,4.3,0,2.288,2.288,0,0,0-1.1,1.347H76A2.289,2.289,0,0,0,74.9,72.36Zm3.1,2.6v.919H76.106v-.919Zm-1.872,3.1a.018.018,0,0,1-.015-.016v-.9h1.888v.9a.018.018,0,0,1-.016.016ZM97,81.153c-.541.372-1.008.693-1.077,1.178a11.192,11.192,0,0,0-.017,2.114,4.73,4.73,0,0,1-.188,2.3c-.626.9-1.167.91-3.136.8-.65-.036-1.456-.081-2.413-.082a1.34,1.34,0,0,0-1.4.832,5.842,5.842,0,0,0-.424,1.377,6.68,6.68,0,0,1-.187.726H80.282l.085-.215c.906-2.28,1.479-3.953.606-4.708A9.949,9.949,0,0,1,77.6,79.318h.374a1.274,1.274,0,0,0,1.273-1.273V74.367a1.051,1.051,0,0,1,.607-.935,5.345,5.345,0,0,0,2.556-4.162,9.988,9.988,0,0,1,5.111-1.4,10.587,10.587,0,0,1,8.131,4.309,4.718,4.718,0,0,1,.624,4.515c-.247.594.119,1.418.736,2.712a11.345,11.345,0,0,1,.566,1.309A5.942,5.942,0,0,1,97,81.153Z" transform="translate(-71.668 -63.458)" fill="rgba(233,124,53,0.24)"/>
    </g>
  </g>
  <g id="Group_12" data-name="Group 12" transform="translate(10.228 6.819)">
    <g id="Group_11" data-name="Group 11">
      <path id="Path_35" data-name="Path 35" d="M172.765,110.133a2.517,2.517,0,0,0-1.335-1.594.629.629,0,0,0-.576,1.118,1.26,1.26,0,0,1,.7.8,1.906,1.906,0,0,1-.174,1.3.629.629,0,1,0,1.06.676A3.151,3.151,0,0,0,172.765,110.133Z" transform="translate(-170.514 -108.47)" fill="rgba(233,124,53,0.24)"/>
    </g>
  </g>
  <g id="Group_14" data-name="Group 14" transform="translate(8.768)">
    <g id="Group_13" data-name="Group 13">
      <path id="Path_36" data-name="Path 36" d="M147.908,0a.629.629,0,0,0-.629.629V2.421a.629.629,0,1,0,1.257,0V.629A.629.629,0,0,0,147.908,0Z" transform="translate(-147.279)" fill="rgba(233,124,53,0.24)"/>
    </g>
  </g>
  <g id="Group_16" data-name="Group 16" transform="translate(0 8.768)">
    <g id="Group_15" data-name="Group 15">
      <path id="Path_37" data-name="Path 37" d="M10.236,139.465H8.444a.629.629,0,1,0,0,1.257h1.792a.629.629,0,0,0,0-1.257Z" transform="translate(-7.815 -139.465)" fill="rgba(233,124,53,0.24)"/>
    </g>
  </g>
  <g id="Group_18" data-name="Group 18" transform="translate(4.384 1.175)">
    <g id="Group_17" data-name="Group 17">
      <path id="Path_38" data-name="Path 38" d="M79.614,20.55,78.718,19a.629.629,0,1,0-1.089.629l.9,1.551a.629.629,0,1,0,1.089-.629Z" transform="translate(-77.545 -18.684)" fill="rgba(233,124,53,0.24)"/>
    </g>
  </g>
  <g id="Group_20" data-name="Group 20" transform="translate(1.174 4.384)">
    <g id="Group_19" data-name="Group 19">
      <path id="Path_39" data-name="Path 39" d="M28.99,70.715l-1.552-.9a.629.629,0,1,0-.629,1.089l1.552.9a.629.629,0,1,0,.629-1.089Z" transform="translate(-26.495 -69.735)" fill="rgba(233,124,53,0.24)"/>
    </g>
  </g>
  <g id="Group_22" data-name="Group 22" transform="translate(14.809 4.384)">
    <g id="Group_21" data-name="Group 21">
      <path id="Path_40" data-name="Path 40" d="M246.107,70.047a.629.629,0,0,0-.859-.23l-1.552.9a.629.629,0,1,0,.629,1.089l1.552-.9A.629.629,0,0,0,246.107,70.047Z" transform="translate(-243.382 -69.732)" fill="rgba(233,124,53,0.24)"/>
    </g>
  </g>
  <g id="Group_24" data-name="Group 24" transform="translate(1.174 12.256)">
    <g id="Group_23" data-name="Group 23">
      <path id="Path_41" data-name="Path 41" d="M29.22,195.26a.629.629,0,0,0-.859-.23l-1.552.9a.629.629,0,1,0,.629,1.089l1.552-.9A.629.629,0,0,0,29.22,195.26Z" transform="translate(-26.495 -194.946)" fill="rgba(233,124,53,0.24)"/>
    </g>
  </g>
  <g id="Group_26" data-name="Group 26" transform="translate(4.384 15.033)">
    <g id="Group_25" data-name="Group 25">
      <path id="Path_42" data-name="Path 42" d="M79.255,239.211a.629.629,0,0,0-.859.23l-.767,1.328a.629.629,0,1,0,1.089.629l.767-1.328A.629.629,0,0,0,79.255,239.211Z" transform="translate(-77.545 -239.127)" fill="rgba(233,124,53,0.24)"/>
    </g>
  </g>
  <g id="Group_28" data-name="Group 28" transform="translate(12.256 1.175)">
    <g id="Group_27" data-name="Group 27">
      <path id="Path_43" data-name="Path 43" d="M204.6,18.768a.629.629,0,0,0-.859.23l-.9,1.551a.629.629,0,1,0,1.089.629l.9-1.551A.629.629,0,0,0,204.6,18.768Z" transform="translate(-202.763 -18.683)" fill="rgba(233,124,53,0.24)"/>
    </g>
  </g>
</svg>
