<svg xmlns="http://www.w3.org/2000/svg" width="25" height="25" viewBox="0 0 25 25">
  <path id="linkedin" d="M7.813,20.654H4.4V9.619H7.813ZM8.154,6.1a2,2,0,1,0-2,2,2,2,0,0,0,2-2Zm12.452,8.48c0-2.962-.626-5.159-4.086-5.159a3.547,3.547,0,0,0-3.235,1.7h0v-1.5H9.961V20.654h3.32V15.175c0-1.435.365-2.825,2.144-2.825,1.754,0,1.811,1.641,1.811,2.916v5.388h3.369ZM25,22.07V2.93A2.933,2.933,0,0,0,22.071,0H2.93A2.933,2.933,0,0,0,0,2.93V22.07A2.933,2.933,0,0,0,2.93,25H22.071A2.933,2.933,0,0,0,25,22.07ZM22.071,1.953a.978.978,0,0,1,.977.977V22.07a.978.978,0,0,1-.977.977H2.93a.978.978,0,0,1-.977-.977V2.93a.978.978,0,0,1,.977-.977Zm0,0" transform="translate(0)" fill="#001414"/>
</svg>
