<svg id="open-hand" xmlns="http://www.w3.org/2000/svg" width="22.167" height="28" viewBox="0 0 22.167 28">
  <path id="Path_59" data-name="Path 59" d="M83.253,15.334a1.75,1.75,0,0,0-1.75,1.75V14.75a1.75,1.75,0,0,0-3.5,0V12.417a1.75,1.75,0,1,0-3.5,0V14.75a1.75,1.75,0,0,0-3.5,0V27l-4.051-2.025a2.917,2.917,0,0,0-1.3-.308A1.645,1.645,0,0,0,64,26.312v.007a1.645,1.645,0,0,0,.482,1.167l7.544,7.544A8.447,8.447,0,0,0,78,37.5h0a7,7,0,0,0,7-7V17.084A1.75,1.75,0,0,0,83.253,15.334Z" transform="translate(-63.419 -10.084)" fill="#ffcc80"/>
  <g id="Group_33" data-name="Group 33" transform="translate(11.084 1.038)">
    <path id="Path_60" data-name="Path 60" d="M256,30.782a.583.583,0,0,0,.583-.583V18.987A1.711,1.711,0,0,0,256,20.282Z" transform="translate(-256.002 -18.987)" fill="#ffb74d"/>
    <path id="Path_61" data-name="Path 61" d="M320,71.115a.583.583,0,0,0,.583-.583V61.653A1.712,1.712,0,0,0,320,62.948Z" transform="translate(-316.503 -59.32)" fill="#ffb74d"/>
    <path id="Path_62" data-name="Path 62" d="M384,105.615v5.833a.583.583,0,0,0,.583-.583V104.32A1.711,1.711,0,0,0,384,105.615Z" transform="translate(-377.003 -99.653)" fill="#ffb74d"/>
  </g>
  <path id="Path_63" data-name="Path 63" d="M67.915,28a8.969,8.969,0,0,1-6.386-2.645l-7.544-7.544A2.233,2.233,0,0,1,55.56,14a3.517,3.517,0,0,1,1.564.369l3.207,1.6V4.667a2.333,2.333,0,0,1,3.5-2.019V2.333a2.333,2.333,0,0,1,4.667,0v.314A2.333,2.333,0,0,1,72,4.667v.314A2.333,2.333,0,0,1,75.5,7V20.417A7.593,7.593,0,0,1,67.915,28ZM55.56,15.167a1.066,1.066,0,0,0-.751,1.82l7.545,7.544a7.81,7.81,0,0,0,5.561,2.3,6.425,6.425,0,0,0,6.417-6.417V7A1.167,1.167,0,1,0,72,7v5.25a.583.583,0,0,1-1.167,0V4.667a1.167,1.167,0,0,0-2.333,0V12.25a.583.583,0,1,1-1.167,0V2.333a1.167,1.167,0,0,0-2.333,0V12.25a.583.583,0,1,1-1.167,0V4.667a1.167,1.167,0,0,0-2.333,0v12.25a.583.583,0,0,1-.845.521L56.6,15.413A2.342,2.342,0,0,0,55.56,15.167Z" transform="translate(-53.331)"/>
</svg>
