<svg id="Outline" xmlns="http://www.w3.org/2000/svg" width="31.422" height="31.422" viewBox="0 0 31.422 31.422">
  <path id="Path_20" data-name="Path 20" d="M16.894,256.153a.524.524,0,0,0-.894.37v14.664a.524.524,0,0,0,.524.524H31.187a.524.524,0,0,0,.37-.894Zm.153,14.51V257.787l12.876,12.876Z" transform="translate(-16 -240.289)" fill="rgba(233,124,53,0.24)"/>
  <path id="Path_21" data-name="Path 21" d="M64.524,373.236h4.19a.524.524,0,0,0,.37-.894l-4.19-4.19a.524.524,0,0,0-.894.37v4.19A.524.524,0,0,0,64.524,373.236Zm.524-3.449,2.4,2.4h-2.4Z" transform="translate(-60.858 -344.957)" fill="rgba(233,124,53,0.24)"/>
  <path id="Path_22" data-name="Path 22" d="M104,48h1.047v1.047H104Z" transform="translate(-98.239 -45.905)" fill="rgba(233,124,53,0.24)"/>
  <path id="Path_23" data-name="Path 23" d="M136,48h1.047v1.047H136Z" transform="translate(-128.145 -45.905)" fill="rgba(233,124,53,0.24)"/>
  <path id="Path_24" data-name="Path 24" d="M168,48h1.047v1.047H168Z" transform="translate(-158.05 -45.905)" fill="rgba(233,124,53,0.24)"/>
  <path id="Path_25" data-name="Path 25" d="M176.311,130.141a.516.516,0,0,0-.311.478v5.761a.524.524,0,0,0,.311.479l4.713,2.095a.522.522,0,0,0,.426,0h0l4.713-2.095a.524.524,0,0,0,.311-.479v-5.761a.516.516,0,0,0-.311-.478h0l-4.713-2.095a.524.524,0,0,0-.425,0l-4.713,2.095Zm4.4,7.527-3.666-1.629v-4.614l3.666,1.629Zm4.713-1.629-3.666,1.629v-4.614l3.666-1.629Zm-4.19-6.942,3.424,1.522-3.424,1.522-3.424-1.522Z" transform="translate(-165.526 -120.668)" fill="rgba(233,124,53,0.24)"/>
  <path id="Path_26" data-name="Path 26" d="M248,320h1.047v2.618H248Z" transform="translate(-232.813 -300.1)" fill="rgba(233,124,53,0.24)"/>
  <path id="Path_27" data-name="Path 27" d="M248,72h1.047v2.618H248Z" transform="translate(-232.813 -68.334)" fill="rgba(233,124,53,0.24)"/>
  <path id="Path_28" data-name="Path 28" d="M0,0H1.047V2.43H0Z" transform="translate(6.579 8.855) rotate(-64.46)" fill="rgba(233,124,53,0.24)"/>
  <path id="Path_29" data-name="Path 29" d="M0,0H2.43V1.047H0Z" transform="translate(22.187 8.95) rotate(-25.54)" fill="rgba(233,124,53,0.24)"/>
  <path id="Path_30" data-name="Path 30" d="M0,0H2.43V1.047H0Z" transform="translate(6.579 17.327) rotate(-25.54)" fill="rgba(233,124,53,0.24)"/>
  <path id="Path_31" data-name="Path 31" d="M99.232,40.09H96.09V31.928l3.079-3.079a2,2,0,0,0-2.835-2.835l-.243.243v-4.5a.524.524,0,0,0-.153-.37L90.7,16.153a.524.524,0,0,0-.37-.153H74.095A2.1,2.1,0,0,0,72,18.095V33.282h1.047V18.095a1.049,1.049,0,0,1,1.047-1.047H89.806V20.19A2.1,2.1,0,0,0,91.9,22.284h3.142V27.3L86.817,35.53a.524.524,0,0,0-.143.268l-.524,2.618a.524.524,0,0,0,.616.616l2.618-.524a.524.524,0,0,0,.268-.143l5.39-5.39V40.09H84.569a.524.524,0,0,0-.524.524v1.571H81.427v1.047h2.618V44.8a.524.524,0,0,0,.524.524H99.232a.524.524,0,0,0,.524-.524v-4.19a.524.524,0,0,0-.524-.524Zm-8.379-19.9v-2.4L94.3,21.237H91.9a1.049,1.049,0,0,1-1.047-1.047ZM87.928,35.9l8.162-8.162,1.354,1.354-8.162,8.162Zm9.823-9.427a.958.958,0,0,1,.677,1.635l-.243.243L96.831,27l.243-.243A.951.951,0,0,1,97.751,26.474ZM87.509,36.963l.711.711-.889.178Zm11.2,7.317H85.092V41.137H86.14v1.047h1.047V41.137h1.047v1.047h1.047V41.137h1.047v1.047h1.047V41.137h1.047v1.047h1.047V41.137h1.047v1.047h1.047V41.137h1.047v1.047h1.047V41.137h1.047Z" transform="translate(-68.334 -16)" fill="rgba(233,124,53,0.24)"/>
</svg>
