<svg id="Page-1" xmlns="http://www.w3.org/2000/svg" width="37.106" height="37.146" viewBox="0 0 37.106 37.146">
  <g id="_035---Creative-Thinking" data-name="035---Creative-Thinking" transform="translate(0 0)">
    <path id="Shape" d="M32.054,27.24a8.32,8.32,0,0,0-.015-3.157l2.835-6.843a.1.1,0,0,0,0-.014,11.627,11.627,0,0,1,1.99-3.456.923.923,0,0,0,.228-.845L35.931,7.9a.605.605,0,0,0-.062-.15c0-.009-.007-.02-.012-.029s-.027-.03-.039-.046a.625.625,0,0,0-.087-.1.576.576,0,0,0-.067-.041.631.631,0,0,0-.1-.058.612.612,0,0,0-.145-.035c-.014,0-.027-.009-.041-.011a.619.619,0,0,0-.341.076c-.009,0-.02.007-.03.012H35L30.633,10.25a.924.924,0,0,0-.437.761,11.621,11.621,0,0,1-1.041,3.859v.007L27.739,18.3a8.305,8.305,0,0,0-2.211-.8,33.449,33.449,0,0,0,.321-6.088,6.757,6.757,0,0,0,1.537-4.96C27,2.848,23.737.242,23.6.132a.619.619,0,0,0-.981.646c.319,1.2.043,2.461-2.312,5.059a3.623,3.623,0,0,0-.849,3.948,4.806,4.806,0,0,0,.882,1.424c-.15.957-.267,1.862-.349,2.744a31,31,0,0,0-.108,4.391,8.424,8.424,0,0,0-1.542,1.074l-3-12.84c0-.013-.012-.022-.016-.034a.586.586,0,0,0-.043-.119L12.21.761a1.43,1.43,0,0,0-2.686.629L9.291,7.825a.639.639,0,0,0,.015.138v.028L12.37,21.065a6.972,6.972,0,0,0-1.431.214L7.569,13.14a1.251,1.251,0,0,0-1.616-.662L.8,14.611a1.242,1.242,0,0,0-.67,1.618L4.7,27.253a4.95,4.95,0,0,0,.255,9.893H32.2a4.953,4.953,0,1,0-.144-9.906Zm-.631-16.025,2.6-1.62L33.1,11.815a.619.619,0,0,0,1.144.474l.919-2.219.688,2.98a12.245,12.245,0,0,0-1.8,2.964,2.546,2.546,0,0,1-3.461-1.431A12.23,12.23,0,0,0,31.423,11.216ZM30,16.076A3.771,3.771,0,0,0,31.543,17.2a3.929,3.929,0,0,0,1.515.319,3.275,3.275,0,0,0,.375-.023l-1.976,4.767A8.4,8.4,0,0,0,28.8,18.977Zm-8.482-4.422,3.11.19c.019.578.012,1.176-.007,1.784a13.014,13.014,0,0,1-3.1-.15l-.232-.03c.062-.583.137-1.174.228-1.794Zm-.3-4.986c1.644-1.813,2.5-3.208,2.694-4.519a8.28,8.28,0,0,1,2.234,4.438A5.547,5.547,0,0,1,24.9,10.619L21.269,10.4a2.582,2.582,0,0,1-.048-3.727Zm-.047,8.013.18.024a17.635,17.635,0,0,0,2.41.2c.256,0,.526-.02.8-.041-.056.8-.149,1.629-.266,2.489-.153-.008-.3-.023-.456-.023a8.292,8.292,0,0,0-2.744.472,29.876,29.876,0,0,1,.078-3.125Zm-4.789,7.24-1.771-7.545a.619.619,0,0,0-1.205.282L15,21.45a7.012,7.012,0,0,0-1.35-.336l-2.717-11.6a2.934,2.934,0,0,0,1.212.264c.039,0,.08-.006.12-.007l.438,1.869a.619.619,0,1,0,1.205-.282l-.438-1.87a2.932,2.932,0,0,0,1.082-.823l2.762,11.812A8.306,8.306,0,0,0,16.387,21.922ZM12.6,8.487a2.055,2.055,0,0,1-2.067-.828l.079-2.18a3.643,3.643,0,0,0,.653.062,2.759,2.759,0,0,0,.629-.07A3.154,3.154,0,0,0,13.045,4.9l1.043,1.924A2.054,2.054,0,0,1,12.6,8.488Zm-1.7-7.232a.193.193,0,0,1,.213.1L12.449,3.8a2.113,2.113,0,0,1-.836.464,2.1,2.1,0,0,1-.954-.045l.1-2.79A.192.192,0,0,1,10.908,1.255ZM6.428,13.62,6.9,14.763l-2.291.948a.619.619,0,0,0,.238,1.19.628.628,0,0,0,.237-.047l2.291-.949.474,1.144L6.7,17.524a.619.619,0,0,0,.238,1.191.63.63,0,0,0,.236-.047l1.146-.475L8.8,19.338l-2.293.95a.619.619,0,0,0,.238,1.191.627.627,0,0,0,.236-.047l2.291-.948.5,1.209a7.187,7.187,0,0,0-4.009,4.879L1.275,15.752ZM32.2,35.908H4.957a3.715,3.715,0,0,1,0-7.429,3.647,3.647,0,0,1,1.059.154.619.619,0,0,0,.8-.581,5.881,5.881,0,0,1,9.41-4.587.619.619,0,0,0,.949-.279,7.121,7.121,0,0,1,13.473,4.6.619.619,0,0,0,.724.787,3.865,3.865,0,0,1,.826-.09,3.715,3.715,0,1,1,0,7.429Z" transform="translate(-0.012 0)" fill="rgba(233,124,53,0.24)"/>
    <path id="Shape-2" data-name="Shape" d="M38.306,13.015a.619.619,0,0,0,.5-.245,4.643,4.643,0,0,0,.823-3.645.619.619,0,1,0-1.2.319,3.439,3.439,0,0,1-.614,2.579.619.619,0,0,0,.5.991Z" transform="translate(-14.364 -3.295)" fill="rgba(233,124,53,0.24)"/>
    <path id="Shape-3" data-name="Shape" d="M32.422,45.253a3.043,3.043,0,0,0-1.328.31,3.715,3.715,0,0,0-6.417,3.647.619.619,0,0,0,.57.376.613.613,0,0,0,.243-.05.619.619,0,0,0,.327-.812,2.522,2.522,0,0,1-.2-.994,2.476,2.476,0,0,1,2.476-2.476,2.452,2.452,0,0,1,2.238,1.424.672.672,0,0,0,.043.058.628.628,0,0,0,.033.062c.011.014.027.02.04.033a.869.869,0,0,0,.2.142.617.617,0,0,0,.111.035.57.57,0,0,0,.116.018.761.761,0,0,0,.236-.04l.049-.012a.561.561,0,0,0,.058-.043.642.642,0,0,0,.065-.033,1.826,1.826,0,0,1,1.149-.406,1.857,1.857,0,0,1,1.684,1.08.619.619,0,0,0,1.127-.514A3.1,3.1,0,0,0,32.422,45.253Z" transform="translate(-9.294 -16.774)" fill="rgba(233,124,53,0.24)"/>
    <path id="Shape-4" data-name="Shape" d="M16.281,39.03A3.36,3.36,0,0,0,14,42.093a.619.619,0,1,0,1.238,0,2.128,2.128,0,0,1,1.438-1.89.62.62,0,1,0-.395-1.176Z" transform="translate(-5.34 -14.853)" fill="rgba(233,124,53,0.24)"/>
    <path id="Shape-5" data-name="Shape" d="M31.469,35.7a.6.6,0,0,0,.15.019.619.619,0,0,0,.6-.469,2.641,2.641,0,0,1,2.5-2.008.619.619,0,0,0,0-1.238,3.856,3.856,0,0,0-3.7,2.945A.619.619,0,0,0,31.469,35.7Z" transform="translate(-11.815 -12.188)" fill="rgba(233,124,53,0.24)"/>
  </g>
</svg>
