<svg id="sketch" xmlns="http://www.w3.org/2000/svg" width="31.699" height="31.597" viewBox="0 0 31.699 31.597">
  <g id="Group_2" data-name="Group 2" transform="translate(22.32 22.284)">
    <g id="Group_1" data-name="Group 1">
      <path id="Path_1" data-name="Path 1" d="M366.245,360.785a.465.465,0,0,0-.507.1l-5.085,5.085a.465.465,0,0,0,.329.794h5.085a.465.465,0,0,0,.465-.465v-5.085A.465.465,0,0,0,366.245,360.785Zm-4.14,5.049,3.5-3.5v3.5Z" transform="translate(-360.517 -360.749)" fill="rgba(233,124,53,0.24)"/>
    </g>
  </g>
  <g id="Group_4" data-name="Group 4" transform="translate(0 0)">
    <g id="Group_3" data-name="Group 3">
      <path id="Path_2" data-name="Path 2" d="M31.412,15.682a.465.465,0,0,0-.507.1l-1.393,1.393V7.7a.465.465,0,0,0-.465-.465H25.471l1.3-1.3h0l1.25-1.25a1.419,1.419,0,0,0,0-2.006L26.574,1.235a1.419,1.419,0,0,0-2.006,0L23.316,2.486,21.8,4,18.567,7.236H4.125v-4.6a.465.465,0,0,0-.465-.465A3.664,3.664,0,0,0,0,5.828V25.589a.466.466,0,0,0,.011.1,3.524,3.524,0,0,0,3.513,3.256H17.742l-2.678,2.678a.465.465,0,0,0,.329.794h15.84a.465.465,0,0,0,.465-.465V16.112A.465.465,0,0,0,31.412,15.682ZM25.226,1.893a.489.489,0,0,1,.69,0l1.446,1.446a.489.489,0,0,1,0,.69l-.922.922L24.3,2.815Zm-1.58,1.58L25.782,5.61l-.854.854L22.792,4.327ZM30.769,21.34H29.91a.465.465,0,0,0,0,.931h.858v1.4H29.91a.465.465,0,0,0,0,.931h.858V26H29.91a.465.465,0,0,0,0,.931h.858v1.4H29.91a.465.465,0,0,0,0,.931h.858v2.219H16.516l4.7-4.7a.465.465,0,0,0-.658-.658l-1.886,1.886H3.525A2.579,2.579,0,0,1,.933,25.5q0-.133.021-.263h0q.008-.062.019-.123l0-.014Q.984,25.049,1,25L1,24.965q.011-.046.023-.091l.014-.049c.007-.024.014-.047.021-.071s.015-.046.024-.07l.017-.048c.011-.03.023-.061.036-.091l.011-.026c.016-.037.032-.074.05-.11l0,0a2.739,2.739,0,0,1,1.9-1.489l.007,0,.117-.021.02,0,.107-.014.03,0,.1-.008.033,0q.068,0,.138,0a.465.465,0,0,0,.465-.465V19.021a.465.465,0,1,0-.931,0v2.938A3.634,3.634,0,0,0,1.1,22.97c-.06.059-.118.12-.174.183V5.828A2.734,2.734,0,0,1,3.194,3.138V17.16h0a.465.465,0,1,0,.931,0h0V8.167H17.636l-2.572,2.572a.465.465,0,1,0,.658.658l3.366-3.366h0l3.045-3.045L24.27,7.121l-.251.251h0l-9.381,9.382L12.5,14.618l1.849-1.849a.465.465,0,0,0-.658-.658l-2.178,2.178a.467.467,0,0,0-.033.037l-.01.013-.019.027-.01.016-.015.026-.008.018-.012.028,0,.01L10.5,17.031,9.88,18.782a.47.47,0,0,0-.018.071H8.314a.465.465,0,0,0,0,.931H21.2a.465.465,0,1,0,0-.931H11.955l2.837-1,.007,0,.033-.014.013-.006.033-.018.01-.006.033-.023.008-.006a.467.467,0,0,0,.038-.034l9.574-9.574h4.04v9.94l-6.655,6.655a.465.465,0,0,0,0,.658.475.475,0,0,0,.035.032.465.465,0,0,0,.623-.032h0l8.185-8.185ZM13.786,17.219l-1.333.47-.888-.888.47-1.333Z" transform="translate(0 -0.82)" fill="rgba(233,124,53,0.24)"/>
    </g>
  </g>
</svg>
