<svg id="twitter" xmlns="http://www.w3.org/2000/svg" width="28" height="20" viewBox="0 0 28 20">
  <g id="Group_30" data-name="Group 30">
    <path id="Path_50" data-name="Path 50" d="M28,50.368a13.276,13.276,0,0,1-3.307.8,5.192,5.192,0,0,0,2.525-2.789,12.469,12.469,0,0,1-3.64,1.222A6.146,6.146,0,0,0,19.385,48c-3.178,0-5.737,2.268-5.737,5.048a4.593,4.593,0,0,0,.133,1.151A17.08,17.08,0,0,1,1.949,48.92a4.622,4.622,0,0,0-.786,2.551,4.926,4.926,0,0,0,2.55,4.194,6.278,6.278,0,0,1-2.593-.622V55.1a5.281,5.281,0,0,0,4.6,4.958,6.476,6.476,0,0,1-1.505.166,5.754,5.754,0,0,1-1.087-.086,5.751,5.751,0,0,0,5.364,3.515A12.577,12.577,0,0,1,1.374,65.8,12.214,12.214,0,0,1,0,65.735,17.811,17.811,0,0,0,8.806,68c10.563,0,16.338-7.692,16.338-14.36,0-.223-.009-.438-.021-.652A10.8,10.8,0,0,0,28,50.368Z" transform="translate(0 -48)" fill="#001414"/>
  </g>
</svg>
