<svg xmlns="http://www.w3.org/2000/svg" width="34.784" height="30.781" viewBox="0 0 34.784 30.781">
  <g id="vector" transform="translate(0 0)">
    <path id="Path_44" data-name="Path 44" d="M227.685,435.932a.512.512,0,0,1-.512-.512v-1.361a.354.354,0,0,0-.354-.354h-1.374a.354.354,0,0,0-.354.354v1.361a.512.512,0,0,1-1.024,0v-1.361a1.379,1.379,0,0,1,1.377-1.377h1.374a1.379,1.379,0,0,1,1.377,1.377v1.361A.512.512,0,0,1,227.685,435.932Z" transform="translate(-208.775 -405.152)" fill="rgba(233,124,53,0.24)"/>
    <g id="Group_29" data-name="Group 29" transform="translate(0 0)">
      <path id="Path_45" data-name="Path 45" d="M151.907,131.435a.512.512,0,0,0-.823.609l2.542,3.433a1.077,1.077,0,0,1-.047,1.31l-2.739,3.125H143.13l-2.739-3.125a1.077,1.077,0,0,1-.047-1.31l5.047-6.816v3.884a2.608,2.608,0,1,0,3.257.055v-3.847l1.124,1.518a.512.512,0,0,0,.823-.609l-2.2-2.966a1.727,1.727,0,0,0-2.827,0l-6.05,8.171a2.106,2.106,0,0,0,.1,2.594l2.284,2.606a1.672,1.672,0,0,0-.967,1.514v2.442a1.673,1.673,0,0,0,1.173,1.594l.14,4.035a.512.512,0,0,0,.511.494h.018a.512.512,0,0,0,.494-.529l-.136-3.924H150.9l-.136,3.924a.512.512,0,0,0,.494.529h.018a.512.512,0,0,0,.511-.494l.14-4.058a1.672,1.672,0,0,0,1.1-1.571v-2.442a1.672,1.672,0,0,0-.967-1.514l2.284-2.606a2.106,2.106,0,0,0,.1-2.594Zm-4.922-4.449a.732.732,0,0,1,.591.32l.048.065v5.487a.512.512,0,0,0,.23.428,1.584,1.584,0,1,1-1.687-.033.512.512,0,0,0,.247-.438v-5.533A.725.725,0,0,1,146.985,126.986Zm5.023,17.038a.647.647,0,0,1-.646.646h-8.755a.647.647,0,0,1-.646-.646v-2.442a.647.647,0,0,1,.646-.646h8.755a.647.647,0,0,1,.646.646Z" transform="translate(-129.627 -119.366)" fill="rgba(233,124,53,0.24)"/>
      <path id="Path_46" data-name="Path 46" d="M70.069,134.983a10.226,10.226,0,0,1,1.317-4.617.512.512,0,0,0-.89-.505,11.251,11.251,0,0,0-1.451,5.117,2.042,2.042,0,1,0,1.025,0Zm-.522,2.992a1.018,1.018,0,1,1,1.018-1.018A1.019,1.019,0,0,1,69.548,137.975Z" transform="translate(-62.898 -122.757)" fill="rgba(233,124,53,0.24)"/>
      <path id="Path_47" data-name="Path 47" d="M33.7,29.327H32.055a1.085,1.085,0,0,0-1.084,1.084v.311H19.3v-.311a1.085,1.085,0,0,0-1.084-1.084H16.57a1.085,1.085,0,0,0-1.084,1.084v.311H3.813v-.311a1.085,1.085,0,0,0-1.084-1.084H1.084A1.085,1.085,0,0,0,0,30.411v1.645A1.085,1.085,0,0,0,1.084,33.14H2.729a1.085,1.085,0,0,0,1.084-1.084v-.311H12.7a11.276,11.276,0,0,0-3.758,2.8.512.512,0,0,0,.768.677,10.221,10.221,0,0,1,5.776-3.3v.132A1.085,1.085,0,0,0,16.57,33.14h1.645A1.085,1.085,0,0,0,19.3,32.056v-.132a10.253,10.253,0,0,1,8.315,9.629,2.041,2.041,0,1,0,1.024,0,11.293,11.293,0,0,0-6.553-9.8h8.886v.311a1.085,1.085,0,0,0,1.084,1.084H33.7a1.085,1.085,0,0,0,1.084-1.084V30.411A1.085,1.085,0,0,0,33.7,29.327ZM2.789,32.056a.06.06,0,0,1-.06.06H1.084a.06.06,0,0,1-.06-.06V30.411a.06.06,0,0,1,.06-.06H2.729a.06.06,0,0,1,.06.06Zm26.364,11.47a1.018,1.018,0,1,1-1.018-1.018A1.019,1.019,0,0,1,29.153,43.526ZM18.275,32.056a.06.06,0,0,1-.06.06H16.57a.06.06,0,0,1-.06-.06V30.411a.06.06,0,0,1,.06-.06h1.645a.06.06,0,0,1,.06.06Zm15.486,0a.06.06,0,0,1-.06.06H32.055a.06.06,0,0,1-.06-.06V30.411a.06.06,0,0,1,.06-.06H33.7a.06.06,0,0,1,.06.06Z" transform="translate(0 -29.327)" fill="rgba(233,124,53,0.24)"/>
    </g>
  </g>
</svg>
