<svg id="web-design" xmlns="http://www.w3.org/2000/svg" width="29.689" height="45.37" viewBox="0 0 29.689 45.37">
  <path id="Path_48" data-name="Path 48" d="M51.529,5.9H51.14A4.9,4.9,0,0,0,50.417.765c-1.284-1.316-3.108-.893-4,.958L44.391,5.9H27.02c-1.428,0-2.59,1.606-2.59,3.58V32.366c0,1.974,1.162,3.58,2.59,3.58H37.078l-.76,4.413h-1.64c-1.069,0-1.939,1.2-1.939,2.68v.56H30.717c-.354,0-.641.4-.641.886s.287.886.641.886H47.832c.354,0,.641-.4.641-.886s-.287-.886-.641-.886H45.81v-.56c0-1.478-.87-2.68-1.939-2.68h-1.64l-.76-4.413H51.529c1.428,0,2.59-1.606,2.59-3.58V9.48c0-1.974-1.162-3.58-2.59-3.58ZM42.345,21.478c-1,.97-2.88-.348-4.673.974-.437-3.142-.162-6.1,2.116-6.749a3,3,0,0,1,.881-.116l2.319,2.378A3.584,3.584,0,0,1,42.345,21.478Zm.646-9.5,1.815,1.861-1.4,2.352-1.643-1.685Zm4.488-9.272a1.288,1.288,0,0,1,2.174-.52,2.667,2.667,0,0,1,.27,3.027l-4.3,7.254L43.7,10.506Zm-2.951,40.33v.56H34.021v-.56c0-.5.295-.908.657-.908h9.193C44.233,42.131,44.528,42.538,44.528,43.039Zm-3.615-2.68H37.636l.76-4.413h1.757Zm11.924-7.992c0,1-.587,1.807-1.307,1.807H27.02c-.721,0-1.307-.811-1.307-1.807v-4.15h1.832c.354,0,.641-.4.641-.886s-.287-.886-.641-.886H25.712V9.48c0-1,.587-1.807,1.307-1.807H43.533L40.56,13.815a3.918,3.918,0,0,0-3.331,1.946c-1.117,1.8-1.314,4.636-.583,8.42.125.647.709.879,1.062.412,1.657-2.189,3.722.2,5.57-1.87a5.871,5.871,0,0,0,.97-5.147l5.875-9.9h1.406c.721,0,1.307.811,1.307,1.807V26.444H32.672c-.354,0-.641.4-.641.886s.287.886.641.886H52.837Z" transform="translate(-24.43 0)" fill="rgba(233,124,53,0.24)"/>
  <path id="Path_49" data-name="Path 49" d="M104,298.447a1.2,1.2,0,1,0,1.407.94,1.2,1.2,0,0,0-1.407-.94Z" transform="translate(-98.193 -272.356)" fill="rgba(233,124,53,0.24)"/>
</svg>
